<svg xmlns="http://www.w3.org/2000/svg" viewBox="0 0 390 390" width="390" height="390">
	<style>
		.frame { fill: none; stroke: #08090a; }
		.layer { fill: #08090a; }
		.sep { stroke: #ffffff; }
		@media (prefers-color-scheme: dark) {
			.frame { stroke: #ededee; }
			.layer { fill: #ededee; }
			.sep { stroke: #0b0c0d; }
		}
	</style>
	<path
		class="frame"
		stroke-width="16"
		d="M340 106.724V284.604C340 292.846 334.944 300.244 327.265 303.238L201.858 352.131C197.13 353.975 191.879 353.952 187.167 352.068L61.5742 301.846C53.98 298.81 49 291.455 49 283.276V106.724C49 98.5452 53.98 91.1905 61.5742 88.1537L187.074 37.9694C191.841 36.0632 197.159 36.0632 201.926 37.9694L327.426 88.1537C335.02 91.1905 340 98.5452 340 106.724Z"
	/>
	<path
		class="layer sep"
		stroke-width="10"
		d="M96.8245 251.339L192 214.956C193.61 214.34 195.39 214.34 197 214.956L292.176 251.339C298.141 253.619 298.187 262.042 292.248 264.388L197.072 301.984C195.419 302.637 193.581 302.637 191.928 301.984L96.7522 264.388C90.8127 262.042 90.8593 253.619 96.8245 251.339Z"
	/>
	<path
		class="layer sep"
		stroke-width="10"
		d="M97.2602 208.337L192.05 172.916C193.63 172.325 195.37 172.325 196.95 172.916L291.74 208.337C297.771 210.591 297.817 219.105 291.811 221.424L197.022 258.026C195.399 258.653 193.601 258.653 191.978 258.026L97.1889 221.424C91.1827 219.105 91.2291 210.591 97.2602 208.337Z"
	/>
	<path
		class="layer sep"
		stroke-width="10"
		d="M97.0399 165.838L192.025 129.935C193.62 129.333 195.38 129.333 196.975 129.935L291.96 165.838C297.958 168.105 298.005 176.573 292.032 178.906L197.047 216.005C195.409 216.645 193.591 216.645 191.953 216.005L96.9682 178.906C90.9954 176.573 91.0419 168.105 97.0399 165.838Z"
	/>
	<path
		class="layer sep"
		stroke-width="10"
		d="M97.2602 123.337L192.05 87.9156C193.63 87.3252 195.37 87.3252 196.95 87.9156L291.74 123.337C297.771 125.591 297.817 134.105 291.811 136.424L197.022 173.026C195.399 173.653 193.601 173.653 191.978 173.026L97.1889 136.424C91.1827 134.105 91.2291 125.591 97.2602 123.337Z"
	/>
</svg>
